<?xml version="1.0" encoding="UTF-8"?>
<!-- Generator: Adobe Illustrator 12.0.0, SVG Export Plug-In . SVG Version: 6.00 Build 51448)  -->
<!DOCTYPE svg PUBLIC "-//W3C//DTD SVG 1.1//EN" "http://www.w3.org/Graphics/SVG/1.1/DTD/svg11.dtd">
<svg version="1.1" id="Layer_1" xmlns="http://www.w3.org/2000/svg" xmlns:xlink="http://www.w3.org/1999/xlink" width="164.448" height="226.771" viewBox="0 0 164.448 226.771" overflow="visible" enable-background="new 0 0 164.448 226.771" xml:space="preserve">
<g>
	<path fill="#DECBA5" d="M151.283,136.177c0,39.129-31.239,70.852-69.775,70.852c-24.904,0-43.676-14.238-60.393-30.648   c-11.118-10.916-9.386-24.61-9.385-40.207c0.002-39.129,31.24-70.848,69.778-70.848C120.044,65.325,151.283,97.045,151.283,136.177   z"/>
	<path fill="#C6AF87" d="M151.283,136.179c0,5.636-1.706,11.249-1.26,16.715c0.295,3.592,1.986,7.24,2.57,10.826   c1.005,6.188,1.862,16.06-7.137,15.63c6.073,7.604-1.925,10.566-7.943,12.733c-4.707,1.695-3.83,1.239-6.438,4.254   c-2.33,2.691-2.577,4.611-5.847,6.693c-5.777,3.678-14.085,4.252-20.277,6.963c-6.74,2.951-13.051,5.412-18.568-0.344   c-8.893,5.055-19.102,9.843-24.847-1.095c-4.025,0.316-6.833,1.772-10.872-0.051c-4.747-2.143-5.748-7.993-9.299-10.972   c-3.746-3.143-6.874-0.262-11.114-3.023c-3.453-2.252-3.021-6.625-5.876-8.959c-2.361-1.93-6.061-1.063-8.571-2.901   c-5.347-3.918-4-11.687-0.128-16.256c0.344-0.406,10.115,11.886,11.837,12.246c3.982,0.839,5.593-5.089,6.984-7.886   c1.763-3.552,2.287-4.381,6.092-4.148c10.581,0.645,18.918,5.972,29.954,3.347c-2.429,0.578,3.155,22.168,4.25,24.204   c5.838,10.848,23.433,4.633,32.328,0.981c9.935-4.079,19.274-11.079,23.534-21.301c4.4-10.56-3.716-15.897-3.041-25.325   c0.264-3.69,4.776-7.908,6.181-11.605c1.735-4.563,2.588-9.6,1.999-14.47c-2.21-18.229-24.807-43.725-44.689-39.698   c-12.313,2.495-20.969,13.229-28.248,22.685c1.121-1.457,0.75-7.158,1.344-9.189c1.104-3.782,3.024-7.279,5.098-10.608   c3.987-6.387,9.56-14.251,16.618-17.508c16.907-7.802,37.969,9.612,48.18,21.471C145.182,102.46,151.283,119.211,151.283,136.179z"/>
	<path fill="none" stroke="#000000" stroke-width="4.5545" d="M151.283,136.177c0,10.584-0.316,17.112,2.288,27.334   c0.734,2.886,2.346,7.041,1.256,10.016c-0.386,1.045-6.222,6.818-6.563,4.67c1.147,7.222,1.367,11.808-6.907,14.253   c-3.304,0.974-5.621,0.254-7.668,2.244c-2.11,2.058-1.311,5.773-4.664,8.157c-4.401,3.13-10.125,2.558-14.782,3.899   c-4.69,1.347-2.786,1.547-6.433,3.676c-4.988,2.914-17.719,9.131-21.563,1.474c-5.555,4.982-13.291,8.306-20.298,3.355   c-2.44-1.725-2.971-4.678-5.712-5.729c-1.607-0.617-5.16,0.959-7.965-0.178c-4.318-1.75-6.248-6.062-9.574-8.463   c-2.574-1.856-2.067-1.5-5.269-2.52c-7.69-2.445-14.367-3.8-13.546-14.559c-10.911,0.603-12.514-5.34-11.163-14.569   c1.726-11.78-0.992-21.181-0.992-33.061c0-39.131,31.239-70.852,69.778-70.852C120.044,65.325,151.283,97.045,151.283,136.177z"/>
	<path fill="#BF0000" stroke="#590F0F" stroke-width="3.7416" d="M64.047,102.695c3.028-10.268,12.464-24.003,22.578-28.402   c4.16-1.809,9.168-4.355,13.805-4.249c6.05,0.138,11.569,5.413,17.189,1.128c5.125-3.907,9.631-15.377,11.169-21.546   c3.236-12.986,0.88-26.042-12.345-32.122c-9.52-4.377-12.584-0.633-14.886,9.065c-2.527-4.467-4.411-11.83-10.038-13.812   c-1.907-0.672-1.866,15-2.201,15.741c-3.205-5.186-9.585-32.414-20.007-21.495c-3.772,3.952-3.823,18.344-2.458,23.294   c1.201,4.357,4.709,7.33,5.539,11.767c-3.056-8.82-10.192-16.476-16.434-23.47c-15.109,5.029-13.453,23.302-10.624,35.519   c0.984,4.243,1.159,9.647,3.623,12.675c2.419,2.973,6.681,3.547,9.063,7.07c-6.041-5.441-16.11-14.634-24.96-10.889   c-0.788,5.408,5.49,12.904,7.326,17.808c3.321,8.869,7.296,17.438,12.321,25.546c6.211,10.023,8.729,5.252,11.257-3.344   C63.991,102.885,64.02,102.79,64.047,102.695z"/>
	<g>
		<ellipse enable-background="new    " cx="93.679" cy="124.032" rx="10.122" ry="10.625"/>
		<path fill="#FF7F00" d="M81.279,124.032c0,7.113,5.563,12.902,12.398,12.902c6.838,0,12.4-5.789,12.4-12.902    c0-7.117-5.563-12.906-12.4-12.906C86.842,111.126,81.279,116.915,81.279,124.032z M85.834,124.032    c0-4.605,3.519-8.352,7.844-8.352c4.327,0,7.847,3.746,7.847,8.352c0,4.603-3.52,8.348-7.847,8.348    C89.353,132.38,85.834,128.635,85.834,124.032z"/>
	</g>
	<ellipse fill="#FFFFFF" cx="88.741" cy="124.464" rx="3.419" ry="3.907"/>
	<path fill="#BF0000" stroke="#FF0000" stroke-width="3.2419" d="M56.55,155.284c-15.887,13.62-25.182,48.904,0.094,58.729   c-4.797-9.859-4.229-21.049-2.435-31.614c-1.108,15.113,0.725,50.016,25.601,37.419c24.101-12.204,0.789-74.771-23.425-64.128"/>
	<path fill="#FF7F00" stroke="#8F0000" stroke-width="3.373" d="M78.471,155.912c0,9.223-9.971,16.7-22.267,16.7   c-5.294,0-22.31-10.639-25.64-4.229c-3.7-16.449,9.68-29.172,25.64-29.172C68.5,139.212,78.471,146.689,78.471,155.912z"/>
	<g>
		<path enable-background="new    " d="M24.099,120.895c-0.133,0.687-0.203,1.395-0.203,2.124c0,5.868,4.533,10.628,10.124,10.628    c5.588,0,10.121-4.76,10.121-10.628c0-0.729-0.07-1.438-0.203-2.124H24.099z"/>
		<path fill="#FF7F00" d="M41.574,120.895c0.17,0.681,0.289,1.386,0.289,2.124c0,4.605-3.518,8.351-7.844,8.351    c-4.327,0-7.846-3.745-7.846-8.351c0-0.738,0.119-1.443,0.289-2.124h-4.661c-0.111,0.692-0.183,1.398-0.183,2.124    c0,7.117,5.563,12.905,12.401,12.905c6.836,0,12.398-5.788,12.398-12.905c0-0.726-0.072-1.432-0.183-2.124H41.574z"/>
		<ellipse fill="#FFFFFF" cx="27.148" cy="124.526" rx="2.778" ry="2.968"/>
		<rect x="19.364" y="119.509" width="29.29" height="2.927"/>
	</g>
	<path fill="none" stroke="#000000" stroke-width="3.7491" stroke-linecap="round" d="M76.703,119.099   c0,0,8.904-16.715,28.431-11.56"/>
</g>
</svg>